<?xml version="1.0" encoding="UTF-8"?>
<svg width="512" height="512" viewBox="0 0 512 512" xmlns="http://www.w3.org/2000/svg">
    <path id="Path" fill="#fff" fill-rule="evenodd" stroke="none" d="M 255.988281 512.277344 C 199.39144 512.090607 103.305461 380.300105 81.808594 347.335938 C 60.315602 314.345403 -33.624665 173.642057 12.767578 96.007813 C 59.179009 18.420748 154.245916 0.281616 256.007813 0.277344 L 256.072266 0.277344 L 256.142578 0.277344 C 357.894175 0.286133 452.972291 18.424716 499.359375 96.011719 L 499.345703 96.007813 C 545.741759 173.640958 451.811755 314.337712 430.304688 347.335938 C 408.809095 380.293513 312.723764 512.092896 256.123047 512.277344 L 256.054688 512.277344 L 255.988281 512.277344 Z M 175.970703 344 L 175.998047 344 L 176.029297 344 C 200.79211 343.899117 242.828114 271.820536 252.232422 253.796875 C 261.641772 235.750944 302.737724 158.807189 282.439453 116.351563 L 282.443359 116.355469 C 262.149019 73.92505 220.553423 64.004807 176.037109 64 L 176.005859 64 L 175.978516 64 C 131.457694 64.00235 89.865547 73.921144 69.560547 116.351563 C 49.263942 158.807776 90.362444 235.755163 99.765625 253.796875 C 109.170505 271.824167 151.209589 343.897888 175.970703 344 Z M 400 192 C 426.509648 192 448 170.509648 448 144 C 448 117.490352 426.509648 96 400 96 C 373.490352 96 352 117.490352 352 144 C 352 170.509648 373.490352 192 400 192 Z"/>
</svg>
